<?xml version="1.0" encoding="UTF-8"?>
<svg version="1.1" xmlns="http://www.w3.org/2000/svg" width="32" height="32">
<path d="M0 0 C10.56 0 21.12 0 32 0 C32 10.56 32 21.12 32 32 C21.44 32 10.88 32 0 32 C0 21.44 0 10.88 0 0 Z " fill="#303438" transform="translate(0,0)"/>
<path d="M0 0 C1.16595703 0.67869141 1.16595703 0.67869141 2.35546875 1.37109375 C3.14566406 1.82613281 3.93585937 2.28117188 4.75 2.75 C5.34167969 3.09933594 5.93335937 3.44867188 6.54296875 3.80859375 C6.59734482 5.39154157 6.63593146 6.97503631 6.66796875 8.55859375 C6.69117187 9.4403125 6.714375 10.32203125 6.73828125 11.23046875 C6.52608895 14.03140707 6.12207252 15.49616005 4.54296875 17.80859375 C2.5546875 19.328125 2.5546875 19.328125 0.23046875 20.62109375 C-0.52878906 21.06066406 -1.28804687 21.50023438 -2.0703125 21.953125 C-5.69446293 23.25212491 -8.14998968 22.23743112 -11.6953125 21.07421875 C-14.14093341 19.87673958 -15.67471738 18.88725435 -17.45703125 16.80859375 C-18.77501578 12.21055722 -18.81848997 8.39849045 -17.45703125 3.80859375 C-12.19702094 -1.78695193 -6.91677847 -3.35392279 0 0 Z " fill="#637983" transform="translate(21.45703125,6.19140625)"/>
<path d="M0 0 C2 2 2 2 2.1953125 4.1640625 C2.16050781 5.38222656 2.16050781 5.38222656 2.125 6.625 C2.10695312 7.44226563 2.08890625 8.25953125 2.0703125 9.1015625 C2.04710937 9.72804688 2.02390625 10.35453125 2 11 C2.66 11 3.32 11 4 11 C4 12.65 4 14.3 4 16 C4.721875 16.268125 5.44375 16.53625 6.1875 16.8125 C9 18 9 18 11.5 19.6875 C13.86173553 21.18744708 13.86173553 21.18744708 16.25 20.9375 C22.06756253 18.95424005 27.06441536 16.70168848 32 13 C32 16.96 32 20.92 32 25 C21.44 25 10.88 25 0 25 C0 16.75 0 8.5 0 0 Z " fill="#232429" transform="translate(0,7)"/>
<path d="M0 0 C0 0.66 0 1.32 0 2 C-0.66 2 -1.32 2 -2 2 C-1.319375 2.886875 -0.63875 3.77375 0.0625 4.6875 C2 8 2 8 1.75 10.875 C1.5025 11.57625 1.255 12.2775 1 13 C-0.98 13 -2.96 13 -5 13 C-5 12.34 -5 11.68 -5 11 C-5.66 11 -6.32 11 -7 11 C-7 11.99 -7 12.98 -7 14 C-7.99 14.495 -7.99 14.495 -9 15 C-8.01 16.485 -8.01 16.485 -7 18 C-7.66 18.33 -8.32 18.66 -9 19 C-9.66 18.67 -10.32 18.34 -11 18 C-11 17.34 -11 16.68 -11 16 C-12.32 15.67 -13.64 15.34 -15 15 C-15.48951049 8.63636364 -15.48951049 8.63636364 -13.125 5.5625 C-11 4 -11 4 -9 4 C-9 3.34 -9 2.68 -9 2 C-2.25 0 -2.25 0 0 0 Z " fill="#C0C1B9" transform="translate(22,6)"/>
<path d="M0 0 C5.94 0 11.88 0 18 0 C17.67 1.32 17.34 2.64 17 4 C14.3125 5.421875 14.3125 5.421875 11 6.75 C6.65137505 8.5690692 6.65137505 8.5690692 3.984375 12.1640625 C3.66066473 14.60755127 3.66066473 14.60755127 4 18 C3.34 18 2.68 18 2 18 C1.7834375 16.39125 1.7834375 16.39125 1.5625 14.75 C1.11974381 11.26595275 1.11974381 11.26595275 0.4375 9 C0 7 0 7 0 0 Z " fill="#33393D" transform="translate(0,0)"/>
<path d="M0 0 C0.33 0 0.66 0 1 0 C1 1.98 1 3.96 1 6 C0.360625 6.103125 -0.27875 6.20625 -0.9375 6.3125 C-1.618125 6.539375 -2.29875 6.76625 -3 7 C-3.33 7.99 -3.66 8.98 -4 10 C-5.98 10.33 -7.96 10.66 -10 11 C-10.68707555 8.50935112 -11 6.62113708 -11 4 C-10.34 4.33 -9.68 4.66 -9 5 C-9 4.01 -9 3.02 -9 2 C-8.34 2 -7.68 2 -7 2 C-7 2.66 -7 3.32 -7 4 C-6.071875 3.7215625 -6.071875 3.7215625 -5.125 3.4375 C-3 3 -3 3 -1 4 C-0.67 2.68 -0.34 1.36 0 0 Z " fill="#B6B9B4" transform="translate(24,15)"/>
<path d="M0 0 C0 0.66 0 1.32 0 2 C-0.66 2 -1.32 2 -2 2 C-2 3.32 -2 4.64 -2 6 C-3.32 6 -4.64 6 -6 6 C-5.67 7.32 -5.34 8.64 -5 10 C-5.99 9.67 -6.98 9.34 -8 9 C-7.67 8.34 -7.34 7.68 -7 7 C-7.99 7 -8.98 7 -10 7 C-10.33 7.66 -10.66 8.32 -11 9 C-11.99 9.33 -12.98 9.66 -14 10 C-14 7 -14 7 -12.625 5.3125 C-11 4 -11 4 -9 4 C-9 3.34 -9 2.68 -9 2 C-2.25 0 -2.25 0 0 0 Z " fill="#E9E9DE" transform="translate(22,6)"/>
<path d="M0 0 C0 0.99 0 1.98 0 3 C-1.98 3 -3.96 3 -6 3 C-6 3.66 -6 4.32 -6 5 C-6.66 5 -7.32 5 -8 5 C-8.33 5.99 -8.66 6.98 -9 8 C-9.66 8 -10.32 8 -11 8 C-11.33 6.35 -11.66 4.7 -12 3 C-4.71428571 -1.71428571 -4.71428571 -1.71428571 0 0 Z " fill="#8A9190" transform="translate(19,5)"/>
<path d="M0 0 C2.0625 1.6875 2.0625 1.6875 4 4 C3.75 6.75 3.75 6.75 3 9 C1.02 9 -0.96 9 -3 9 C-3.33 6.69 -3.66 4.38 -4 2 C-2.68 2 -1.36 2 0 2 C0 1.34 0 0.68 0 0 Z " fill="#CECFC7" transform="translate(20,10)"/>
<path d="M0 0 C0.33 0 0.66 0 1 0 C2.0735426 9.57668161 2.0735426 9.57668161 -0.55859375 13.06640625 C-2.31091597 14.52961293 -4.04753546 15.81955587 -6 17 C-6.33 16.34 -6.66 15.68 -7 15 C-6.34 14.67 -5.68 14.34 -5 14 C-4.27306096 12.02111039 -3.60183749 10.02045442 -3 8 C-2.34 8 -1.68 8 -1 8 C-0.67 5.36 -0.34 2.72 0 0 Z " fill="#272E35" transform="translate(31,9)"/>
<path d="M0 0 C0.9075 0.165 1.815 0.33 2.75 0.5 C5.91372977 0.98672766 7.94173339 0.80954116 11 0 C11.33 0.66 11.66 1.32 12 2 C6.77908938 5.03541315 6.77908938 5.03541315 3.25 4.875 C1 4 1 4 -1 1 C-0.67 0.67 -0.34 0.34 0 0 Z " fill="#798487" transform="translate(11,24)"/>
<path d="M0 0 C0.66 0.33 1.32 0.66 2 1 C0.68 2.65 -0.64 4.3 -2 6 C-4.97 5.505 -4.97 5.505 -8 5 C-7.67 4.01 -7.34 3.02 -7 2 C-6.21625 1.855625 -5.4325 1.71125 -4.625 1.5625 C-2.03578982 1.12201075 -2.03578982 1.12201075 0 0 Z " fill="#24323B" transform="translate(21,26)"/>
<path d="M0 0 C0.66 0 1.32 0 2 0 C2 0.99 2 1.98 2 3 C2.66 3 3.32 3 4 3 C3.67 3.99 3.34 4.98 3 6 C1.35 5.67 -0.3 5.34 -2 5 C-2 4.01 -2 3.02 -2 2 C-1.34 2.33 -0.68 2.66 0 3 C0 2.01 0 1.02 0 0 Z " fill="#4D565C" transform="translate(15,17)"/>
<path d="M0 0 C2.125 0.9375 2.125 0.9375 4 2 C3.01 2.495 3.01 2.495 2 3 C1.34786708 5.02463255 1.34786708 5.02463255 1 7 C-2 3.25 -2 3.25 -2 1 C-1.34 0.67 -0.68 0.34 0 0 Z " fill="#8D9899" transform="translate(22,7)"/>
<path d="M0 0 C0.33 0 0.66 0 1 0 C1 1.98 1 3.96 1 6 C0.01 6.33 -0.98 6.66 -2 7 C-2 6.34 -2 5.68 -2 5 C-2.99 5.33 -3.98 5.66 -5 6 C-5.66 5.34 -6.32 4.68 -7 4 C-3.25 2.875 -3.25 2.875 -1 4 C-0.67 2.68 -0.34 1.36 0 0 Z " fill="#91A2A8" transform="translate(24,15)"/>
</svg>
